# xmcd
#
# Track frame offsets: 
#        150
#        14717
#        28537
#        42782
#        58557
#        75662
#        88147
#        104397
#        121927
#        136912
#        151882
#
# Disc length: 2338 seconds
#
# Revision: 4
# Processed by: cddbd v1.5.2PL0 Copyright (c) Steve Scherf et al.
# Submitted via: ExactAudioCopyFreeDBPlugin 1.0
#
DISCID=8409200b
DTITLE=Andy Griggs - You Won't Ever Be Lonely
DYEAR=1999
DGENRE=Country
TTITLE0=You Made Me This Way
TTITLE1=I'll Go Crazy
TTITLE2=I Miss You The Most
TTITLE3=You Won't Ever Be Lonely
TTITLE4=Waitin' On Sundown
TTITLE5=A Side Of Me
TTITLE6=I Don't Know A Thing
TTITLE7=Shine On Me
TTITLE8=Ain't Done Nothing Wrong
TTITLE9=She's More
TTITLE10=Ain't Livin' Long Like This
EXTD=YEAR: 1999
EXTT0=
EXTT1=
EXTT2=
EXTT3=
EXTT4=
EXTT5=
EXTT6=
EXTT7=
EXTT8=
EXTT9=
EXTT10=
PLAYORDER=
